ffmpeg started on 2016-11-30 at 09:46:04
Report written to "Output/x264/results/ffmpeg/old_town_cross_2160p50faster12000k.log"
Command line:
Tools/ffmpeg/ffmpeg -benchmark -y -i Input/y4m/old_town_cross_2160p50.y4m -c:v libx264 -preset faster -b:v 12000k -an Output/x264/encoded/old_town_cross_2160p50faster12000k.mkv
ffmpeg version N-82227-gdb23fde Copyright (c) 2000-2016 the FFmpeg developers
  built with gcc 5.4.0 (Ubuntu 5.4.0-6ubuntu1~16.04.2) 20160609
  configuration: --prefix=/home/jaroslav/ffmpeg_build --pkg-config-flags=--static --extra-cflags=-I/home/jaroslav/ffmpeg_build/include --extra-ldflags=-L/home/jaroslav/ffmpeg_build/lib --bindir=/home/jaroslav/bin --enable-gpl --enable-libass --enable-libfdk-aac --enable-libfreetype --enable-libmp3lame --enable-libopus --enable-libtheora --enable-libvorbis --enable-libvpx --enable-libx264 --enable-libx265 --enable-nvenc --enable-libmfx --enable-libxvid --enable-libgsm --enable-libopencore-amrnb --enable-version3 --enable-nonfree
  libavutil      55. 35.100 / 55. 35.100
  libavcodec     57. 66.101 / 57. 66.101
  libavformat    57. 57.100 / 57. 57.100
  libavdevice    57.  2.100 / 57.  2.100
  libavfilter     6. 66.100 /  6. 66.100
  libswscale      4.  3.100 /  4.  3.100
  libswresample   2.  4.100 /  2.  4.100
  libpostproc    54.  2.100 / 54.  2.100
Input #0, yuv4mpegpipe, from 'Input/y4m/old_town_cross_2160p50.y4m':
  Duration: 00:00:10.00, start: 0.000000, bitrate: 4976642 kb/s
    Stream #0:0: Video: rawvideo (I420 / 0x30323449), yuv420p(progressive), 3840x2160, SAR 1:1 DAR 16:9, 50 fps, 50 tbr, 50 tbn, 50 tbc
[libx264 @ 0x291f120] using SAR=1/1
[libx264 @ 0x291f120] using cpu capabilities: MMX2 SSE2Fast SSSE3 SSE4.2 AVX FMA3 AVX2 LZCNT BMI2
[libx264 @ 0x291f120] profile High, level 5.2
[libx264 @ 0x291f120] 264 - core 148 - H.264/MPEG-4 AVC codec - Copyleft 2003-2016 - http://www.videolan.org/x264.html - options: cabac=1 ref=2 deblock=1:0:0 analyse=0x3:0x113 me=hex subme=4 psy=1 psy_rd=1.00:0.00 mixed_ref=0 me_range=16 chroma_me=1 trellis=1 8x8dct=1 cqm=0 deadzone=21,11 fast_pskip=1 chroma_qp_offset=0 threads=6 lookahead_threads=1 sliced_threads=0 nr=0 decimate=1 interlaced=0 bluray_compat=0 constrained_intra=0 bframes=3 b_pyramid=2 b_adapt=1 b_bias=0 direct=1 weightb=1 open_gop=0 weightp=1 keyint=250 keyint_min=25 scenecut=40 intra_refresh=0 rc_lookahead=20 rc=abr mbtree=1 bitrate=12000 ratetol=1.0 qcomp=0.60 qpmin=0 qpmax=69 qpstep=4 ip_ratio=1.40 aq=1:1.00
Output #0, matroska, to 'Output/x264/encoded/old_town_cross_2160p50faster12000k.mkv':
  Metadata:
    encoder         : Lavf57.57.100
    Stream #0:0: Video: h264 (libx264) (H264 / 0x34363248), yuv420p, 3840x2160 [SAR 1:1 DAR 16:9], q=-1--1, 12000 kb/s, 50 fps, 1k tbn, 50 tbc
    Metadata:
      encoder         : Lavc57.66.101 libx264
    Side data:
      cpb: bitrate max/min/avg: 0/0/12000000 buffer size: 0 vbv_delay: -1
Stream mapping:
  Stream #0:0 -> #0:0 (rawvideo (native) -> h264 (libx264))
Press [q] to stop, [?] for help
frame=   27 fps= 21 q=0.0 size=       0kB time=00:00:00.00 bitrate=N/A speed=   0x    frame=   34 fps= 18 q=33.0 size=       1kB time=00:00:00.02 bitrate= 279.2kbits/s speed=0.0114x    frame=   44 fps= 18 q=44.0 size=       1kB time=00:00:00.22 bitrate=  26.5kbits/s speed=0.0927x    frame=   56 fps= 18 q=38.0 size=       1kB time=00:00:00.46 bitrate=  12.7kbits/s speed=0.149x    frame=   67 fps= 19 q=35.0 size=       1kB time=00:00:00.68 bitrate=   8.6kbits/s speed=0.189x    frame=   76 fps= 18 q=34.0 size=       1kB time=00:00:00.86 bitrate=   6.8kbits/s speed= 0.2x    frame=   87 fps= 18 q=33.0 size=       1kB time=00:00:01.08 bitrate=   5.4kbits/s speed=0.225x    frame=   96 fps= 17 q=33.0 size=       1kB time=00:00:01.26 bitrate=   4.7kbits/s speed=0.229x    frame=  107 fps= 18 q=33.0 size=       1kB time=00:00:01.48 bitrate=   4.0kbits/s speed=0.246x    frame=  116 fps= 17 q=33.0 size=       1kB time=00:00:01.66 bitrate=   3.5kbits/s speed=0.248x    frame=  126 fps= 17 q=33.0 size=       1kB time=00:00:01.86 bitrate=   3.2kbits/s speed=0.258x    frame=  134 fps= 17 q=33.0 size=       1kB time=00:00:02.02 bitrate=   2.9kbits/s speed=0.259x    frame=  143 fps= 17 q=33.0 size=       1kB time=00:00:02.20 bitrate=   2.7kbits/s speed=0.264x    frame=  152 fps= 17 q=33.0 size=       1kB time=00:00:02.38 bitrate=   2.5kbits/s speed=0.269x    frame=  161 fps= 17 q=33.0 size=       1kB time=00:00:02.56 bitrate=   2.3kbits/s speed=0.273x    frame=  170 fps= 17 q=33.0 size=       1kB time=00:00:02.74 bitrate=   2.1kbits/s speed=0.274x    frame=  179 fps= 17 q=33.0 size=       1kB time=00:00:02.92 bitrate=   2.0kbits/s speed=0.277x    frame=  188 fps= 17 q=33.0 size=       1kB time=00:00:03.10 bitrate=   1.9kbits/s speed=0.281x    frame=  198 fps= 17 q=33.0 size=       1kB time=00:00:03.30 bitrate=   1.8kbits/s speed=0.284x    frame=  206 fps= 17 q=33.0 size=       1kB time=00:00:03.46 bitrate=   1.7kbits/s speed=0.285x    frame=  215 fps= 17 q=33.0 size=    5141kB time=00:00:03.64 bitrate=11566.9kbits/s speed=0.286x    frame=  224 fps= 17 q=33.0 size=    5141kB time=00:00:03.82 bitrate=11022.0kbits/s speed=0.289x    frame=  233 fps= 17 q=33.0 size=    5141kB time=00:00:04.00 bitrate=10526.2kbits/s speed=0.291x    frame=  242 fps= 16 q=33.0 size=    5141kB time=00:00:04.18 bitrate=10073.0kbits/s speed=0.282x    frame=  245 fps= 16 q=33.0 size=    5141kB time=00:00:04.24 bitrate=9930.5kbits/s speed=0.272x    frame=  250 fps= 15 q=33.0 size=    5141kB time=00:00:04.34 bitrate=9701.7kbits/s speed=0.269x    frame=  255 fps= 15 q=33.0 size=    5141kB time=00:00:04.44 bitrate=9483.3kbits/s speed=0.265x    frame=  260 fps= 15 q=33.0 size=    5141kB time=00:00:04.54 bitrate=9274.4kbits/s speed=0.262x    frame=  265 fps= 15 q=33.0 size=    5141kB time=00:00:04.64 bitrate=9074.6kbits/s speed=0.26x    frame=  270 fps= 15 q=33.0 size=    5141kB time=00:00:04.74 bitrate=8883.2kbits/s speed=0.257x    frame=  275 fps= 14 q=30.0 size=    5141kB time=00:00:04.84 bitrate=8699.7kbits/s speed=0.252x    frame=  285 fps= 14 q=34.0 size=    7318kB time=00:00:05.04 bitrate=11892.4kbits/s speed=0.256x    frame=  295 fps= 15 q=34.0 size=    7318kB time=00:00:05.24 bitrate=11438.6kbits/s speed=0.259x    frame=  304 fps= 15 q=34.0 size=    7318kB time=00:00:05.42 bitrate=11058.7kbits/s speed=0.261x    frame=  313 fps= 15 q=34.0 size=    7318kB time=00:00:05.60 bitrate=10703.4kbits/s speed=0.262x    frame=  323 fps= 15 q=33.0 size=    7318kB time=00:00:05.80 bitrate=10334.3kbits/s speed=0.265x    frame=  332 fps= 15 q=33.0 size=    7318kB time=00:00:05.98 bitrate=10023.3kbits/s speed=0.266x    frame=  341 fps= 15 q=33.0 size=    7318kB time=00:00:06.16 bitrate=9730.5kbits/s speed=0.267x    frame=  351 fps= 15 q=33.0 size=    7318kB time=00:00:06.36 bitrate=9424.5kbits/s speed=0.27x    frame=  360 fps= 15 q=33.0 size=    7318kB time=00:00:06.54 bitrate=9165.2kbits/s speed=0.271x    frame=  367 fps= 15 q=33.0 size=    7318kB time=00:00:06.68 bitrate=8973.1kbits/s speed=0.271x    frame=  376 fps= 15 q=33.0 size=    7318kB time=00:00:06.86 bitrate=8737.7kbits/s speed=0.272x    frame=  385 fps= 15 q=33.0 size=    7318kB time=00:00:07.04 bitrate=8514.3kbits/s speed=0.274x    frame=  393 fps= 15 q=33.0 size=    7318kB time=00:00:07.20 bitrate=8325.2kbits/s speed=0.275x    frame=  400 fps= 15 q=33.0 size=    7318kB time=00:00:07.34 bitrate=8166.4kbits/s speed=0.275x    frame=  410 fps= 15 q=33.0 size=    7318kB time=00:00:07.54 bitrate=7949.8kbits/s speed=0.276x    frame=  419 fps= 15 q=33.0 size=    7318kB time=00:00:07.72 bitrate=7764.5kbits/s speed=0.277x    frame=  428 fps= 15 q=33.0 size=    7318kB time=00:00:07.90 bitrate=7587.6kbits/s speed=0.278x    frame=  435 fps= 15 q=33.0 size=    7318kB time=00:00:08.04 bitrate=7455.5kbits/s speed=0.278x    frame=  445 fps= 15 q=33.0 size=    7318kB time=00:00:08.24 bitrate=7274.5kbits/s speed=0.28x    frame=  454 fps= 15 q=33.0 size=    7318kB time=00:00:08.42 bitrate=7119.0kbits/s speed=0.281x    frame=  462 fps= 15 q=33.0 size=   12442kB time=00:00:08.58 bitrate=11877.9kbits/s speed=0.281x    frame=  471 fps= 15 q=33.0 size=   12442kB time=00:00:08.76 bitrate=11633.9kbits/s speed=0.282x    frame=  479 fps= 15 q=33.0 size=   12442kB time=00:00:08.92 bitrate=11425.2kbits/s speed=0.282x    frame=  483 fps= 15 q=33.0 size=   12442kB time=00:00:09.00 bitrate=11323.7kbits/s speed=0.278x    frame=  486 fps= 15 q=33.0 size=   12442kB time=00:00:09.06 bitrate=11248.7kbits/s speed=0.274x    frame=  491 fps= 15 q=33.0 size=   12442kB time=00:00:09.16 bitrate=11125.9kbits/s speed=0.272x    frame=  496 fps= 14 q=33.0 size=   12442kB time=00:00:09.26 bitrate=11005.7kbits/s speed=0.27x    frame=  500 fps= 14 q=33.0 size=   12442kB time=00:00:09.34 bitrate=10911.5kbits/s speed=0.268x    frame=  500 fps= 14 q=-1.0 Lsize=   14970kB time=00:00:09.94 bitrate=12336.4kbits/s speed=0.275x    
video:14966kB audio:0kB subtitle:0kB other streams:0kB global headers:0kB muxing overhead: 0.030787%
bench: utime=117.872s
bench: maxrss=1347196kB
[libx264 @ 0x291f120] frame I:3     Avg QP:28.76  size:454455
[libx264 @ 0x291f120] frame P:183   Avg QP:31.36  size: 47465
[libx264 @ 0x291f120] frame B:314   Avg QP:33.26  size: 16798
[libx264 @ 0x291f120] consecutive B-frames: 16.0%  0.8%  0.0% 83.2%
[libx264 @ 0x291f120] mb I  I16..4: 28.0% 53.8% 18.3%
[libx264 @ 0x291f120] mb P  I16..4:  3.3%  3.2%  0.0%  P16..4: 27.7%  3.8%  0.5%  0.0%  0.0%    skip:61.5%
[libx264 @ 0x291f120] mb B  I16..4:  0.6%  0.5%  0.0%  B16..8: 14.1%  0.6%  0.0%  direct:10.9%  skip:73.3%  L0:37.7% L1:61.4% BI: 0.8%
[libx264 @ 0x291f120] final ratefactor: 25.34
[libx264 @ 0x291f120] 8x8 transform intra:49.4% inter:62.0%
[libx264 @ 0x291f120] coded y,uvDC,uvAC intra: 49.7% 42.6% 19.9% inter: 6.5% 5.1% 0.0%
[libx264 @ 0x291f120] i16 v,h,dc,p: 34% 27% 30%  9%
[libx264 @ 0x291f120] i8 v,h,dc,ddl,ddr,vr,hd,vl,hu:  9% 13% 56%  3%  3%  3%  5%  3%  4%
[libx264 @ 0x291f120] i4 v,h,dc,ddl,ddr,vr,hd,vl,hu: 16% 25% 12%  7%  7%  7% 10%  6%  9%
[libx264 @ 0x291f120] i8c dc,h,v,p: 72% 13% 14%  1%
[libx264 @ 0x291f120] Weighted P-Frames: Y:0.5% UV:0.0%
[libx264 @ 0x291f120] ref P L0: 72.1% 27.9%
[libx264 @ 0x291f120] ref B L0: 87.0% 13.0%
[libx264 @ 0x291f120] ref B L1: 95.5%  4.5%
[libx264 @ 0x291f120] kb/s:12259.25
